Coordinates
version=1
nRows=38
nColumns=12
inDegrees=yes

Units are S.I. units (second, meters, Newtons, ...)
Angles are in degrees

endheader
time	SC_y	SC_z	SC_x	AC_y	AC_z	AC_x	GH_y	GH_z	GH_yy	EL_x	PS_y
       0.0              -28.86        -0.9014          37.92          47.33         -5.879         0.5698         -148.2          41.32         -1.605          47.05          62.62
  0.006761              -28.86        -0.8978          37.93          47.34         -5.877         0.5704         -148.2          41.31         -1.579          47.06          62.62
   0.01352              -28.86         -0.894          37.94          47.34         -5.875          0.571         -148.2          41.31         -1.551          47.07          62.62
   0.02028              -28.86        -0.8899          37.94          47.34         -5.873         0.5717         -148.1           41.3         -1.521          47.08          62.61
   0.02704              -28.86        -0.8855          37.95          47.34          -5.87         0.5724         -148.1          41.29          -1.49           47.1          62.61
    0.0338              -28.86        -0.8809          37.96          47.34         -5.867         0.5732         -148.0          41.28         -1.456          47.11           62.6
   0.04057              -28.86         -0.876          37.97          47.35         -5.865          0.574         -148.0          41.27          -1.42          47.13           62.6
   0.04733              -28.86        -0.8707          37.98          47.35         -5.861         0.5749         -147.9          41.26         -1.381          47.14          62.59
   0.05409              -28.86         -0.865          37.99          47.35         -5.858         0.5758         -147.9          41.24          -1.34          47.16          62.59
   0.06085              -28.86        -0.8589           38.0          47.35         -5.855         0.5769         -147.8          41.23         -1.296          47.18          62.58
   0.06761              -28.86        -0.8524          38.01          47.36         -5.851         0.5779         -147.8          41.22         -1.248           47.2          62.57
   0.07437              -28.86        -0.8454          38.02          47.36         -5.847         0.5791         -147.7           41.2         -1.197          47.22          62.57
   0.08113              -28.86        -0.8378          38.04          47.36         -5.842         0.5804         -147.6          41.19         -1.142          47.24          62.56
   0.08789              -28.86        -0.8296          38.05          47.37         -5.838         0.5817         -147.5          41.17         -1.082          47.26          62.55
   0.09465              -28.86        -0.8208          38.07          47.37         -5.832         0.5832         -147.5          41.15         -1.017          47.29          62.54
    0.1014              -28.86        -0.8112          38.09          47.38         -5.827         0.5848         -147.4          41.13        -0.9475          47.32          62.53
    0.1082              -28.86        -0.8007          38.11          47.38         -5.821         0.5865         -147.3          41.11        -0.8715          47.35          62.52
    0.1149              -28.86        -0.7894          38.13          47.39         -5.814         0.5884         -147.2          41.08        -0.7886          47.38          62.51
    0.1217              -28.86        -0.7769          38.15          47.39         -5.807         0.5905         -147.0          41.06        -0.6981          47.42          62.49
    0.1285              -28.86        -0.7634          38.17           47.4         -5.799         0.5927         -146.9          41.03        -0.5991          47.46          62.48
    0.1352              -28.86        -0.7484           38.2          47.41          -5.79         0.5952         -146.8           41.0        -0.4903           47.5          62.46
     0.142              -28.86         -0.732          38.23          47.42         -5.781         0.5979         -146.6          40.96        -0.3706          47.55          62.45
    0.1487              -28.86        -0.7139          38.26          47.42          -5.77         0.6009         -146.5          40.92        -0.2384          47.61          62.43
    0.1555              -28.86        -0.6938           38.3          47.43         -5.758         0.6043         -146.3          40.88       -0.09193          47.67          62.41
    0.1623              -28.86        -0.6714          38.34          47.44         -5.745          0.608         -146.0          40.83        0.07092          47.73          62.38
     0.169              -28.86        -0.6465          38.38          47.46         -5.731         0.6121         -145.8          40.78         0.2526          47.81          62.36
    0.1758              -28.86        -0.6186          38.43          47.47         -5.715         0.6167         -145.5          40.72         0.4562          47.89          62.33
    0.1825              -28.86        -0.5872          38.49          47.48         -5.696         0.6219         -145.3          40.65         0.6852          47.98           62.3
    0.1893              -28.86        -0.5517          38.56           47.5         -5.676         0.6278         -144.9          40.58         0.9439          48.09          62.26
    0.1961              -28.86        -0.5113          38.63          47.52         -5.652         0.6345         -144.5          40.49          1.238          48.21          62.22
    0.2028              -28.86        -0.4653          38.71          47.54         -5.625         0.6422         -144.1          40.39          1.573          48.34          62.17
    0.2096              -28.86        -0.4125          38.81          47.57         -5.595         0.6509         -143.6          40.28          1.958           48.5          62.11
    0.2164              -28.86        -0.3516          38.92           47.6         -5.559          0.661         -143.0          40.15          2.402          48.68          62.05
    0.2231              -28.86        -0.2808          39.05          47.63         -5.518         0.6728         -142.3           40.0          2.918          48.89          61.98
    0.2299              -28.86        -0.1979           39.2          47.67          -5.47         0.6865         -141.6          39.82          3.522          49.14          61.89
    0.2366              -28.86        -0.1002          39.37          47.72         -5.413         0.7028         -140.6          39.61          4.234          49.43          61.79
    0.2434              -28.86        0.01591          39.58          47.77         -5.345          0.722         -139.5          39.36          5.081          49.77          61.67
    0.2502              -28.87         0.1551          39.83          47.84         -5.264         0.7451         -138.2          39.07          6.095          50.19          61.52
